<?xml version="1.0" encoding="utf-8"?>
<!-- Generator: Adobe Illustrator 24.3.0, SVG Export Plug-In . SVG Version: 6.00 Build 0)  -->
<svg version="1.1" id="Layer_1" xmlns="http://www.w3.org/2000/svg" xmlns:xlink="http://www.w3.org/1999/xlink" x="0px" y="0px"
	 viewBox="0 0 108.2 18.2" style="enable-background:new 0 0 108.2 18.2;" xml:space="preserve">
<style type="text/css">
	.st0{fill:#003865;}
</style>
<polygon class="st0" points="26.9,5.2 25.3,7.4 20,0 12,10.9 8.6,6.1 0,18.1 8.4,18.1 5.1,16.5 8.6,11.7 12.1,16.2 13.4,14.5 
	20,5.5 23.5,10.3 21.6,12.8 24.4,14.1 26.9,10.8 32.6,18.1 36.3,18.1 "/>
<path class="st0" d="M57.5,5.5c-3.6,0-6,2.8-6,6.3c0,3.5,2.6,6.3,6.2,6.3c3.2,0,5-2.4,5-2.4l-1.4-1.4c0,0-1.2,1.8-3.6,1.8
	c-2.2,0-4-1.7-4.1-3.5h9.6c0-0.3,0-0.5,0-0.7C63.3,8,60.9,5.5,57.5,5.5z M53.7,10.7c0.2-1.2,1.2-3.2,3.8-3.2c2.4,0,3.6,1.9,3.7,3.2
	H53.7z"/>
<path class="st0" d="M67.8,7.6V5.8h-2v11.9H68V9.5c0,0,0.9-2,2.7-2c0.9,0,1.4,0.3,1.4,0.3l0.8-2c0,0-0.7-0.3-1.7-0.3
	C68.9,5.5,67.8,7.6,67.8,7.6z"/>
<path class="st0" d="M80.6,16c-1.2,0-1.7-0.7-1.7-1.8V7.8h3.7v-2h-3.7V2.1h-2.2v3.6h-2.3v2h2.3v6.5c0,2.6,1.9,3.7,3.6,3.7
	c0.7,0,1.4-0.2,2.5-0.7L82,15.5C82,15.5,81.3,16,80.6,16z"/>
<path class="st0" d="M90.3,5.5c-3.6,0-6,2.8-6,6.3c0,3.5,2.6,6.3,6.2,6.3c3.2,0,5-2.4,5-2.4l-1.4-1.4c0,0-1.2,1.8-3.6,1.8
	c-2.2,0-4-1.7-4.1-3.5h9.6c0-0.3,0-0.5,0-0.7C96.1,8,93.6,5.5,90.3,5.5z M86.5,10.7c0.2-1.2,1.2-3.2,3.8-3.2c2.4,0,3.6,1.9,3.7,3.2
	H86.5z"/>
<polygon class="st0" points="103.9,11.6 107.9,5.8 105.5,5.8 102.5,10.2 99.5,5.8 96.9,5.8 101,11.6 96.7,17.7 101.7,17.7 
	99.7,16.8 102.3,13.1 105.6,17.7 105.6,17.7 105.6,17.7 108.2,17.7 "/>
<polygon class="st0" points="46.3,5.8 48.3,6.7 45.1,13.9 41.4,5.8 39,5.8 45,18.2 50.9,5.8 "/>
</svg>
